# xmcd
#
# Track frame offsets:
#        150
#        3702
#        20572
#        37497
#        60635
#        84570
#        103467
#        124177
#        146070
#        160950
#        184682
#        201067
#        223730
#        245070
#        268803
#
# Disc length: 3940 seconds
#
# Revision: 0
# Processed by: cddbd v1.5.1PL2 Copyright (c) Steve Scherf et al.
# Submitted via: ExactAudioCopy v0.95a5
#
DISCID=ee0f620f
DTITLE=YOSHIKA - timeless
DYEAR=2006
DGENRE=R&B
TTITLE0=intro
TTITLE1=happiness
TTITLE2=Call Me
TTITLE3=nothing
TTITLE4=Sunshine (feat. VERBALL)
TTITLE5=STAY
TTITLE6=you and me
TTITLE7=Just Us
TTITLE8=one day (feat. B-BANDJ)
TTITLE9=human
TTITLE10=Ooh Child
TTITLE11=Come back to you
TTITLE12=alive (feat. WISE)
TTITLE13=can't control
TTITLE14=let go [acoustic version] - YOSHIKA loves m-flo
EXTD=
EXTT0=
EXTT1=
EXTT2=
EXTT3=
EXTT4=
EXTT5=
EXTT6=
EXTT7=
EXTT8=
EXTT9=
EXTT10=
EXTT11=
EXTT12=
EXTT13=
EXTT14=
PLAYORDER=
